<?xml version="1.0" standalone="no"?><!DOCTYPE svg PUBLIC "-//W3C//DTD SVG 1.1//EN" "http://www.w3.org/Graphics/SVG/1.1/DTD/svg11.dtd"><svg t="1627436969248" class="icon" viewBox="0 0 1024 1024" version="1.1" xmlns="http://www.w3.org/2000/svg" p-id="2323" xmlns:xlink="http://www.w3.org/1999/xlink" width="200" height="200"><defs><style type="text/css"></style></defs><path d="M736 192a160 160 0 0 1 160 160v341.333333a160 160 0 0 1-160 160h-426.666667A160 160 0 0 1 149.333333 693.333333v-341.333333A160 160 0 0 1 309.333333 192z m0 64h-426.666667a96 96 0 0 0-96 96v341.333333a96 96 0 0 0 96 96h426.666667a96 96 0 0 0 96-96v-341.333333a96 96 0 0 0-96-96z m-341.333333 394.666667a32 32 0 0 1 0 64h-85.333334a32 32 0 0 1 0-64z m170.666666 0a32 32 0 0 1 0 64h-85.333333a32 32 0 0 1 0-64z m170.666667 0a32 32 0 0 1 0 64h-85.333333a32 32 0 0 1 0-64z" p-id="2324"></path></svg>