<?xml version="1.0" standalone="no"?><!DOCTYPE svg PUBLIC "-//W3C//DTD SVG 1.1//EN" "http://www.w3.org/Graphics/SVG/1.1/DTD/svg11.dtd"><svg t="1625823035997" class="icon" viewBox="0 0 1025 1024" version="1.1" xmlns="http://www.w3.org/2000/svg" p-id="13546" xmlns:xlink="http://www.w3.org/1999/xlink" width="200.1953125" height="200"><defs><style type="text/css"></style></defs><path d="M992.246751 528.516129a32.371613 32.371613 0 0 1-31.710968-23.783226l-105.04258-366.658064A99.096774 99.096774 0 0 0 760.360299 66.064516H265.537074a99.096774 99.096774 0 0 0-94.472259 72.010323L67.343525 504.732903a33.032258 33.032258 0 1 1-66.064516-18.498064l105.703226-366.658065A167.143226 167.143226 0 0 1 265.537074 0h494.16258a167.143226 167.143226 0 0 1 159.876129 119.576774l104.381936 366.658065a33.032258 33.032258 0 0 1-22.461936 40.96z" p-id="13547"></path><path d="M860.117719 1024H166.440299A165.16129 165.16129 0 0 1 1.279009 858.83871V495.483871A33.032258 33.032258 0 0 1 34.311267 462.451613h292.005161a122.219355 122.219355 0 0 1 95.132904 53.512258 118.255484 118.255484 0 0 0 183.659354 0A122.219355 122.219355 0 0 1 700.24159 462.451613H992.246751a33.032258 33.032258 0 0 1 33.032258 33.032258V858.83871a165.16129 165.16129 0 0 1-165.16129 165.16129zM67.343525 528.516129v330.322581a99.096774 99.096774 0 0 0 99.096774 99.096774H860.117719a99.096774 99.096774 0 0 0 99.096774-99.096774V528.516129h-258.972903a66.064516 66.064516 0 0 0-42.941936 27.747097 181.016774 181.016774 0 0 1-288.04129 0A66.064516 66.064516 0 0 0 326.316428 528.516129z" p-id="13548"></path></svg>