<?xml version="1.0" standalone="no"?><!DOCTYPE svg PUBLIC "-//W3C//DTD SVG 1.1//EN" "http://www.w3.org/Graphics/SVG/1.1/DTD/svg11.dtd"><svg t="1625822643443" class="icon" viewBox="0 0 1024 1024" version="1.1" xmlns="http://www.w3.org/2000/svg" p-id="8142" xmlns:xlink="http://www.w3.org/1999/xlink" width="200" height="200"><defs><style type="text/css"></style></defs><path d="M937.472 192H431.616c-3.072 0-6.144-1.536-7.68-4.096l-68.608-107.52c-13.312-20.48-35.328-32.768-59.904-32.768H88.064c-38.912 0-70.656 31.744-70.656 70.656v804.352c0 38.912 31.744 70.656 70.656 70.656h849.408c38.912 0 70.656-31.744 70.656-70.656V262.656c0.512-38.912-31.744-70.656-70.656-70.656z m9.728 731.136c0 5.12-4.096 9.216-9.216 9.216h-849.92c-5.12 0-9.216-4.096-9.216-9.216V118.272c0-5.12 4.096-9.216 9.216-9.216h207.36c3.072 0 6.144 1.536 7.68 4.096l68.608 107.52c13.312 20.48 35.328 32.768 59.904 32.768h505.856c5.12 0 9.216 4.096 9.216 9.216v660.48z" p-id="8143"></path><path d="M829.44 358.4H194.56c-16.896 0-30.72 13.824-30.72 30.72s13.824 30.72 30.72 30.72h634.88c16.896 0 30.72-13.824 30.72-30.72s-13.824-30.72-30.72-30.72z" p-id="8144"></path></svg>