<?xml version="1.0" standalone="no"?><!DOCTYPE svg PUBLIC "-//W3C//DTD SVG 1.1//EN" "http://www.w3.org/Graphics/SVG/1.1/DTD/svg11.dtd"><svg t="1625822655552" class="icon" viewBox="0 0 1024 1024" version="1.1" xmlns="http://www.w3.org/2000/svg" p-id="8275" xmlns:xlink="http://www.w3.org/1999/xlink" width="200" height="200"><defs><style type="text/css"></style></defs><path d="M713.6 473.6l-179.2 96-128-70.4-51.2-25.6L284.8 512l249.6 137.6 249.6-137.6z" p-id="8276"></path><path d="M534.4 768l-249.6-134.4 70.4-41.6 51.2 28.8 128 70.4 179.2-99.2 70.4 41.6zM534.4 256L288 390.4l246.4 134.4 246.4-134.4L534.4 256z m-108.8 134.4l108.8-60.8 108.8 60.8-108.8 60.8-108.8-60.8z" p-id="8277"></path><path d="M918.4 732.8l-384 217.6-384-217.6V294.4l384-220.8 384 220.8 64-38.4-448-256-448 256v512l448 256 448-256V384l-64 38.4z" p-id="8278"></path></svg>