<?xml version="1.0" standalone="no"?><!DOCTYPE svg PUBLIC "-//W3C//DTD SVG 1.1//EN" "http://www.w3.org/Graphics/SVG/1.1/DTD/svg11.dtd"><svg t="1625822671883" class="icon" viewBox="0 0 1024 1024" version="1.1" xmlns="http://www.w3.org/2000/svg" p-id="10455" xmlns:xlink="http://www.w3.org/1999/xlink" width="200" height="200"><defs><style type="text/css"></style></defs><path d="M938.667 853.333H85.333C37.547 853.333 0 815.787 0 768V256c0-47.787 37.547-85.333 85.333-85.333h853.334c47.786 0 85.333 37.546 85.333 85.333v512c0 47.787-37.547 85.333-85.333 85.333zM85.333 204.8c-27.306 0-51.2 23.893-51.2 51.2v512c0 27.307 23.894 51.2 51.2 51.2h853.334c27.306 0 51.2-23.893 51.2-51.2V256c0-27.307-23.894-51.2-51.2-51.2H85.333z" p-id="10456"></path><path d="M501.76 546.133c-23.893 0-51.2-6.826-68.267-20.48L109.227 303.787c-6.827-3.414-10.24-17.067-3.414-23.894 3.414-6.826 13.654-10.24 23.894-3.413l324.266 221.867c27.307 20.48 71.68 20.48 98.987 0L894.293 276.48c6.827-6.827 17.067-3.413 23.894 3.413s3.413 17.067-3.414 23.894L573.44 525.653c-20.48 13.654-44.373 20.48-71.68 20.48z m-382.293 204.8c-3.414 0-10.24-3.413-13.654-6.826-6.826-6.827-6.826-17.067 3.414-23.894l238.933-204.8c6.827-6.826 17.067-6.826 23.893 3.414 6.827 6.826 6.827 17.066-3.413 23.893l-238.933 204.8c-3.414 3.413-6.827 3.413-10.24 3.413z m785.066 0c-3.413 0-6.826 0-10.24-3.413L655.36 542.72c-6.827-6.827-6.827-17.067-3.413-23.893s17.066-6.827 23.893-3.414l238.933 204.8c6.827 6.827 6.827 17.067 3.414 23.894-3.414 3.413-10.24 6.826-13.654 6.826z" p-id="10457"></path></svg>