<?xml version="1.0" standalone="no"?><!DOCTYPE svg PUBLIC "-//W3C//DTD SVG 1.1//EN" "http://www.w3.org/Graphics/SVG/1.1/DTD/svg11.dtd"><svg t="1625822979392" class="icon" viewBox="0 0 1024 1024" version="1.1" xmlns="http://www.w3.org/2000/svg" p-id="12007" xmlns:xlink="http://www.w3.org/1999/xlink" width="200" height="200"><defs><style type="text/css"></style></defs><path d="M693.12 448a192.064 192.064 0 0 1-362.24 0H64V384h896v64h-266.88zM622.784 448H401.152a128 128 0 0 0 221.696 0zM256 192V128a64 64 0 0 1 64-64h384a64 64 0 0 1 64 64v64h192a64 64 0 0 1 64 64v640a64 64 0 0 1-64 64H64a64 64 0 0 1-64-64V256a64 64 0 0 1 64-64h192z m64 0h384V128H320v64zM64 256v640h896V256H64z" p-id="12008"></path></svg>